{
  "accessors": [
    {
      "bufferView": 1,
      "componentType": 5126,
      "count": 1376,
      "max": [
        3.1562750339508057,
        3.354079008102417,
        14.602187156677246
      ],
      "min": [
        -0.53498101234436035,
        -0.33713200688362122,
        -0.35914000868797302
      ],
      "type": "VEC3"
    },
    {
      "bufferView": 1,
      "byteOffset": 16512,
      "componentType": 5126,
      "count": 1376,
      "max": [
        0.99998021125793457,
        0.99998021125793457,
        1
      ],
      "min": [
        -0.99998021125793457,
        -0.99998021125793457,
        -1
      ],
      "type": "VEC3"
    },
    {
      "bufferView": 0,
      "componentType": 5125,
      "count": 2064,
      "max": [
        1375
      ],
      "min": [
        0
      ],
      "type": "SCALAR"
    },
    {
      "bufferView": 1,
      "byteOffset": 33024,
      "componentType": 5126,
      "count": 576,
      "max": [
        1.994204044342041,
        2.1920371055603027,
        2.9103751182556152
      ],
      "min": [
        0.62706297636032104,
        0.82489597797393799,
        -0.17059299349784851
      ],
      "type": "VEC3"
    },
    {
      "bufferView": 1,
      "byteOffset": 39936,
      "componentType": 5126,
      "count": 576,
      "max": [
        0.99174302816390991,
        0.99174302816390991,
        1
      ],
      "min": [
        -0.99174302816390991,
        -0.99174302816390991,
        -1
      ],
      "type": "VEC3"
    },
    {
      "bufferView": 0,
      "byteOffset": 8256,
      "componentType": 5125,
      "count": 1056,
      "max": [
        575
      ],
      "min": [
        0
      ],
      "type": "SCALAR"
    },
    {
      "bufferView": 1,
      "byteOffset": 46848,
      "componentType": 5126,
      "count": 7840,
      "max": [
        3.356471061706543,
        3.5260989665985107,
        22.298786163330078
      ],
      "min": [
        -0.68461400270462036,
        -0.48941400647163391,
        13.769098281860352
      ],
      "type": "VEC3"
    },
    {
      "bufferView": 1,
      "byteOffset": 140928,
      "componentType": 5126,
      "count": 7840,
      "max": [
        0.99985194206237793,
        0.99919438362121582,
        0.74656617641448975
      ],
      "min": [
        -0.99869358539581299,
        -0.99983793497085571,
        -0.99819391965866089
      ],
      "type": "VEC3"
    },
    {
      "bufferView": 0,
      "byteOffset": 12480,
      "componentType": 5125,
      "count": 11520,
      "max": [
        7839
      ],
      "min": [
        0
      ],
      "type": "SCALAR"
    }
  ],
  "asset": {
    "extras": {
      "author": "Gianmarco (https://sketchfab.com/GianmArt)",
      "license": "CC-BY-4.0 (http://creativecommons.org/licenses/by/4.0/)",
      "source": "https://sketchfab.com/3d-models/torch-d659eb741e4c48e09527f9fbb4104186",
      "title": "Torch"
    },
    "generator": "Sketchfab-8.20.0",
    "version": "2.0"
  },
  "bufferViews": [
    {
      "buffer": 0,
      "byteLength": 58560,
      "byteOffset": 0,
      "name": "floatBufferViews",
      "target": 34963
    },
    {
      "buffer": 0,
      "byteLength": 235008,
      "byteOffset": 58560,
      "byteStride": 12,
      "name": "floatBufferViews",
      "target": 34962
    }
  ],
  "buffers": [
    {
      "byteLength": 293568,
      "uri": "scene.bin"
    }
  ],
  "materials": [
    {
      "doubleSided": true,
      "name": "Material",
      "pbrMetallicRoughness": {
        "baseColorFactor": [
          0.012518225399999999,
          0.012518225399999999,
          0.012518225399999999,
          1
        ],
        "metallicFactor": 0.92244664629999995,
        "roughnessFactor": 0.5322027439
      }
    },
    {
      "doubleSided": true,
      "name": "Material.001",
      "pbrMetallicRoughness": {
        "baseColorFactor": [
          0.15766773040000001,
          0.025222690499999999,
          0,
          1
        ],
        "metallicFactor": 0,
        "roughnessFactor": 0.64805640239999995
      }
    },
    {
      "alphaMode": "BLEND",
      "doubleSided": true,
      "emissiveFactor": [
        1,
        0.27005214409131262,
        0
      ],
      "name": "Material.002",
      "pbrMetallicRoughness": {
        "baseColorFactor": [
          0.7926760665,
          0.51151832340000003,
          0,
          0.20903201220000001
        ],
        "metallicFactor": 0,
        "roughnessFactor": 0.57488567069999996
      }
    }
  ],
  "meshes": [
    {
      "primitives": [
        {
          "attributes": {
            "NORMAL": 1,
            "POSITION": 0
          },
          "indices": 2,
          "material": 1,
          "mode": 4
        }
      ]
    },
    {
      "primitives": [
        {
          "attributes": {
            "NORMAL": 4,
            "POSITION": 3
          },
          "indices": 5,
          "material": 0,
          "mode": 4
        }
      ]
    },
    {
      "primitives": [
        {
          "attributes": {
            "NORMAL": 7,
            "POSITION": 6
          },
          "indices": 8,
          "material": 2,
          "mode": 4
        }
      ]
    }
  ],
  "nodes": [
    {
      "children": [
        1
      ],
      "name": "RootNode (gltf orientation matrix)",
      "rotation": [
        -0.70710678118654746,
        -0,
        -0,
        0.70710678118654757
      ]
    },
    {
      "children": [
        2
      ],
      "matrix": [
        0.9977031946182251,
        -0.017845885828137398,
        0.065344087779521942,
        0,
        0.01148376427590847,
        0.99526917934417725,
        0.096474990248680115,
        0,
        -0.066756635904312134,
        -0.095503009855747223,
        0.99318814277648926,
        0,
        0.71794033050537109,
        1.0786745548248291,
        -0.15905186533927917,
        1
      ],
      "name": "RootNode (model correction matrix)"
    },
    {
      "children": [
        3,
        4,
        5
      ],
      "name": "97c88c4bb64a457686e53b2d728d3c2d.obj.cleaner.materialmerger.gles"
    },
    {
      "mesh": 0,
      "name": ""
    },
    {
      "mesh": 1,
      "name": ""
    },
    {
      "mesh": 2,
      "name": ""
    }
  ],
  "scene": 0,
  "scenes": [
    {
      "name": "OSG_Scene",
      "nodes": [
        0
      ]
    }
  ]
}

