{
  "accessors": [
    {
      "bufferView": 3,
      "componentType": 5126,
      "count": 48,
      "max": [
        5.0194320678710938,
        2.748044490814209,
        0.87144231796264648
      ],
      "min": [
        -5.0194320678710938,
        -0.96043062210083008,
        -1.6315360069274902
      ],
      "type": "VEC3"
    },
    {
      "bufferView": 3,
      "byteOffset": 576,
      "componentType": 5126,
      "count": 48,
      "max": [
        0.87011164426803589,
        -0.49246597290039062,
        0.054276358336210251
      ],
      "min": [
        -0.87011206150054932,
        -0.6421654224395752,
        3.8892030715942383e-06
      ],
      "type": "VEC3"
    },
    {
      "bufferView": 2,
      "componentType": 5126,
      "count": 48,
      "max": [
        1,
        1
      ],
      "min": [
        0,
        0
      ],
      "type": "VEC2"
    },
    {
      "bufferView": 1,
      "componentType": 5125,
      "count": 108,
      "max": [
        47
      ],
      "min": [
        0
      ],
      "type": "SCALAR"
    },
    {
      "bufferView": 3,
      "byteOffset": 1152,
      "componentType": 5126,
      "count": 2071,
      "max": [
        288.32302856445312,
        -324.48846435546875,
        -14.384058952331543
      ],
      "min": [
        3.139164924621582,
        -567.8441162109375,
        -331.07012939453125
      ],
      "type": "VEC3"
    },
    {
      "bufferView": 3,
      "byteOffset": 26004,
      "componentType": 5126,
      "count": 2071,
      "max": [
        0.99942797422409058,
        0.99998724460601807,
        0.99875718355178833
      ],
      "min": [
        -0.99999642372131348,
        -0.9985465407371521,
        -0.9989960789680481
      ],
      "type": "VEC3"
    },
    {
      "bufferView": 2,
      "byteOffset": 384,
      "componentType": 5126,
      "count": 2071,
      "max": [
        0.99307036399841309,
        0.99521052837371826
      ],
      "min": [
        0.00050000002374872565,
        0.00050000002374872565
      ],
      "type": "VEC2"
    },
    {
      "bufferView": 1,
      "byteOffset": 432,
      "componentType": 5125,
      "count": 10653,
      "max": [
        2070
      ],
      "min": [
        0
      ],
      "type": "SCALAR"
    },
    {
      "bufferView": 5,
      "componentType": 5126,
      "count": 21,
      "max": [
        1,
        0.051917862147092819,
        0.077657215297222137,
        0,
        0.093410708010196686,
        1,
        0.09341178834438324,
        0,
        0.051989849656820297,
        0.077656343579292297,
        1,
        0,
        45.122806549072266,
        47.806354522705078,
        57.720935821533203,
        1
      ],
      "min": [
        -0.032223548740148544,
        -0.093039222061634064,
        -0.034517787396907806,
        0,
        -0.0085861347615718842,
        -0.057981021702289581,
        -1.725234177740731e-08,
        0,
        -0.09192289412021637,
        -0.092015206813812256,
        -1.8933008050225908e-08,
        0,
        -31.649028778076172,
        -20.456110000610352,
        -2.3471019268035889,
        1
      ],
      "type": "MAT4"
    },
    {
      "bufferView": 0,
      "componentType": 5123,
      "count": 2071,
      "max": [
        19,
        19,
        19,
        19
      ],
      "min": [
        2,
        2,
        2,
        2
      ],
      "type": "VEC4"
    },
    {
      "bufferView": 4,
      "componentType": 5126,
      "count": 2071,
      "max": [
        1,
        0.48387095332145691,
        0.29032260179519653,
        0.16129033267498016
      ],
      "min": [
        0.32258063554763794,
        0,
        0,
        0
      ],
      "type": "VEC4"
    }
  ],
  "asset": {
    "extras": {
      "author": "Crotex (https://sketchfab.com/crotex)",
      "license": "CC-BY-4.0 (http://creativecommons.org/licenses/by/4.0/)",
      "source": "https://sketchfab.com/3d-models/seal-animal-rigged-4529f2fe13f64280bcf8be4a030756ca",
      "title": "Seal Animal (Rigged)"
    },
    "generator": "Sketchfab-9.90.0",
    "version": "2.0"
  },
  "bufferViews": [
    {
      "buffer": 0,
      "byteLength": 16568,
      "byteOffset": 0,
      "byteStride": 8,
      "name": "shortBufferViews",
      "target": 34962
    },
    {
      "buffer": 0,
      "byteLength": 43044,
      "byteOffset": 16568,
      "name": "floatBufferViews",
      "target": 34963
    },
    {
      "buffer": 0,
      "byteLength": 16952,
      "byteOffset": 59612,
      "byteStride": 8,
      "name": "floatBufferViews",
      "target": 34962
    },
    {
      "buffer": 0,
      "byteLength": 50856,
      "byteOffset": 76564,
      "byteStride": 12,
      "name": "floatBufferViews",
      "target": 34962
    },
    {
      "buffer": 0,
      "byteLength": 33136,
      "byteOffset": 127420,
      "byteStride": 16,
      "name": "floatBufferViews",
      "target": 34962
    },
    {
      "buffer": 0,
      "byteLength": 1344,
      "byteOffset": 160556,
      "byteStride": 64,
      "name": "floatBufferViews"
    }
  ],
  "buffers": [
    {
      "byteLength": 161900,
      "uri": "scene.bin"
    }
  ],
  "images": [
    {
      "uri": "textures/foca_baseColor.png"
    }
  ],
  "materials": [
    {
      "doubleSided": true,
      "emissiveFactor": [
        0,
        0,
        0
      ],
      "name": "Light_portal_ICE",
      "pbrMetallicRoughness": {
        "baseColorFactor": [
          0.83529399999999998,
          1,
          1,
          1
        ],
        "metallicFactor": 0,
        "roughnessFactor": 0.88884683435784251
      }
    },
    {
      "doubleSided": true,
      "emissiveFactor": [
        0,
        0,
        0
      ],
      "name": "foca",
      "pbrMetallicRoughness": {
        "baseColorFactor": [
          1,
          1,
          1,
          1
        ],
        "baseColorTexture": {
          "index": 0,
          "texCoord": 0
        },
        "metallicFactor": 0,
        "roughnessFactor": 0.97364871534954101
      }
    }
  ],
  "meshes": [
    {
      "name": "Plane003_Light_portal_ICE_0",
      "primitives": [
        {
          "attributes": {
            "NORMAL": 1,
            "POSITION": 0,
            "TEXCOORD_0": 2
          },
          "indices": 3,
          "material": 0,
          "mode": 4
        }
      ]
    },
    {
      "name": "Box015_foca_0",
      "primitives": [
        {
          "attributes": {
            "JOINTS_0": 9,
            "NORMAL": 5,
            "POSITION": 4,
            "TEXCOORD_0": 6,
            "WEIGHTS_0": 10
          },
          "indices": 7,
          "material": 1,
          "mode": 4
        }
      ]
    }
  ],
  "nodes": [
    {
      "children": [
        1
      ],
      "name": "RootNode (gltf orientation matrix)",
      "rotation": [
        -0.70710678118654746,
        -0,
        -0,
        0.70710678118654757
      ]
    },
    {
      "children": [
        2
      ],
      "name": "RootNode (model correction matrix)"
    },
    {
      "children": [
        3
      ],
      "matrix": [
        1,
        0,
        0,
        0,
        0,
        0,
        1,
        0,
        0,
        -1,
        0,
        0,
        0,
        0,
        0,
        1
      ],
      "name": "Foca.fbx"
    },
    {
      "children": [
        4
      ],
      "name": "RootNode"
    },
    {
      "children": [
        5
      ],
      "matrix": [
        10.705288887023926,
        0,
        0,
        0,
        0,
        10.705288887023784,
        1.7441129979860444e-06,
        0,
        0,
        -1.7441129979860444e-06,
        10.705288887023784,
        0,
        0,
        -410,
        0,
        1
      ],
      "name": "Armature.001"
    },
    {
      "children": [
        6,
        30,
        29
      ],
      "name": ""
    },
    {
      "children": [
        7
      ],
      "name": "_rootJoint"
    },
    {
      "children": [
        8
      ],
      "name": "FOCA_boca cerrada_Anim_00",
      "rotation": [
        2.3115192384024773e-24,
        -0.29039382934570312,
        7.6169308784783381e-24,
        0.95690721273422241
      ],
      "translation": [
        -1.6030864715576172,
        60.814056396484375,
        13.030338287353516
      ]
    },
    {
      "children": [
        9,
        19
      ],
      "name": "Bone005_01",
      "rotation": [
        -0.025057066231966019,
        0.70666271448135376,
        -0.025057150050997734,
        0.70666265487670898
      ],
      "scale": [
        1,
        0.99999994039535522,
        1
      ],
      "translation": [
        -1.6093254089355469e-06,
        -18.664939880371094,
        -1.3978438377380371
      ]
    },
    {
      "children": [
        10
      ],
      "name": "Bone001_02",
      "rotation": [
        -2.9627653930219822e-07,
        -6.5315653330344503e-08,
        0.91506189107894897,
        0.40331345796585083
      ],
      "scale": [
        0.9999997615814209,
        0.99999994039535522,
        1
      ],
      "translation": [
        -1.9861814975738525,
        0.69935178756713867,
        -3.4483973649912514e-06
      ]
    },
    {
      "children": [
        11
      ],
      "name": "Bone002_03",
      "rotation": [
        8.2423639469197951e-08,
        1.7815764419282232e-09,
        -0.44684296846389771,
        0.89461243152618408
      ],
      "scale": [
        1.0000001192092896,
        1,
        1.0000001192092896
      ],
      "translation": [
        3.3469338417053223,
        3.4570693969726562e-06,
        2.9926693514426006e-06
      ]
    },
    {
      "children": [
        12
      ],
      "name": "Bone003_04",
      "rotation": [
        -6.0018706449227466e-08,
        -4.1375074033567216e-08,
        0.12567649781703949,
        0.99207127094268799
      ],
      "scale": [
        0.99999994039535522,
        0.99999994039535522,
        1
      ],
      "translation": [
        7.4611349105834961,
        1.9073486328125e-06,
        9.5575751402066089e-07
      ]
    },
    {
      "children": [
        13,
        15,
        17
      ],
      "name": "Bone004_05",
      "rotation": [
        1.1929853371839272e-07,
        -3.6953476723056156e-08,
        -2.9103833926180656e-11,
        1
      ],
      "scale": [
        1,
        0.99999988079071045,
        1
      ],
      "translation": [
        7.5809435844421387,
        3.1590461730957031e-06,
        1.8932836383100948e-06
      ]
    },
    {
      "children": [
        14
      ],
      "name": "Dummy_ojoder_06",
      "rotation": [
        0.70710593461990356,
        0.0011194044491276145,
        0.70710593461990356,
        -0.001121902372688055
      ],
      "scale": [
        0.99854075908660889,
        1,
        1
      ],
      "translation": [
        -1.4834514856338501,
        2.3376169204711914,
        -1.4310010671615601
      ]
    },
    {
      "name": "Dummy_ojoder_end_016",
      "rotation": [
        -1.504632769052528e-36,
        5.4210108624275222e-20,
        2.7755575615628914e-17,
        1
      ],
      "translation": [
        0,
        3.1165423393249512,
        0
      ]
    },
    {
      "children": [
        16
      ],
      "name": "Dummy_ojoizq_07",
      "rotation": [
        0.7070763111114502,
        0.0065818377770483494,
        0.70707625150680542,
        -0.0065667182207107544
      ],
      "scale": [
        1.0089594125747681,
        1.0000001192092896,
        1
      ],
      "translation": [
        -1.483451247215271,
        2.3376173973083496,
        1.4310004711151123
      ]
    },
    {
      "name": "Dummy_ojoizq_end_017",
      "rotation": [
        -1.7347234759768071e-18,
        -1.3010426069826053e-18,
        5.5511151231257827e-17,
        1
      ],
      "translation": [
        -8.8817841970012523e-16,
        3.1165428161621094,
        0
      ]
    },
    {
      "children": [
        18
      ],
      "matrix": [
        0.049526913818777642,
        0.02856529800449728,
        0.99836457459856143,
        0,
        -0.14200854039997746,
        -0.98923418536007501,
        0.03534882440831507,
        0,
        0.98862576278857361,
        -0.14352696287661001,
        -0.044937183898418727,
        0,
        -3.5177626609802246,
        2.7338705062866211,
        0.010111331939697266,
        1
      ],
      "name": "Plane003"
    },
    {
      "mesh": 0,
      "name": "Plane003_Light_portal_ICE_0"
    },
    {
      "children": [
        20
      ],
      "name": "Bone006_08",
      "rotation": [
        -1.5899511041084224e-08,
        -6.0853793115711596e-08,
        -0.010579630732536316,
        0.99994403123855591
      ],
      "scale": [
        0.99999994039535522,
        1,
        1
      ],
      "translation": [
        6.1749639511108398,
        1.4156103134155273e-07,
        7.2827242547646165e-07
      ]
    },
    {
      "children": [
        21,
        25
      ],
      "name": "Bone007_09",
      "rotation": [
        -1.6302175254168105e-07,
        3.7306499223177525e-08,
        -2.18395129536475e-07,
        1
      ],
      "scale": [
        1.0000001192092896,
        1,
        1
      ],
      "translation": [
        7.1372723579406738,
        2.5779008865356445e-06,
        3.7517706914513838e-06
      ]
    },
    {
      "children": [
        22
      ],
      "name": "Bone008_010",
      "rotation": [
        -0.6366460919380188,
        -0.30770385265350342,
        -0.24788247048854828,
        0.66223436594009399
      ],
      "scale": [
        1,
        0.99999988079071045,
        0.99999994039535522
      ],
      "translation": [
        -1.0371640920639038,
        -0.045804291963577271,
        1.8533928394317627
      ]
    },
    {
      "children": [
        23
      ],
      "name": "Bone009_011",
      "rotation": [
        0.036525741219520569,
        -0.21393775939941406,
        0.16428382694721222,
        0.96224081516265869
      ],
      "scale": [
        1.0000001192092896,
        0.99999994039535522,
        1
      ],
      "translation": [
        4.4854388236999512,
        -6.3608549680793658e-06,
        7.8993355145939859e-07
      ]
    },
    {
      "children": [
        24
      ],
      "name": "Bone010_012",
      "rotation": [
        -6.0647167288152559e-08,
        2.0489096641540527e-08,
        -4.3913061631428718e-08,
        1
      ],
      "translation": [
        4.9877090454101562,
        1.8091122910846025e-06,
        4.8242509365081787e-06
      ]
    },
    {
      "name": "Bone010_end_018",
      "rotation": [
        3.0814879110195774e-33,
        -5.5511151231257827e-17,
        5.5511151231257827e-17,
        1
      ],
      "translation": [
        1.7763568394002505e-15,
        4.987708568572998,
        2.2204460492503131e-16
      ]
    },
    {
      "children": [
        26
      ],
      "name": "Bone011_013",
      "rotation": [
        -0.66709703207015991,
        0.2344810962677002,
        0.29480630159378052,
        0.64272034168243408
      ],
      "scale": [
        0.99999994039535522,
        0.99999994039535522,
        1.0000001192092896
      ],
      "translation": [
        -1.073452353477478,
        -0.04914914071559906,
        -1.9734830856323242
      ]
    },
    {
      "children": [
        27
      ],
      "name": "Bone012_014",
      "rotation": [
        -0.029240371659398079,
        -0.2168014794588089,
        -0.13042339682579041,
        0.96702218055725098
      ],
      "translation": [
        4.4591460227966309,
        2.9459802135534119e-06,
        -2.2010112843418028e-07
      ]
    },
    {
      "children": [
        28
      ],
      "name": "Bone013_015",
      "rotation": [
        -6.7928240810033458e-10,
        -7.1013346314430237e-09,
        4.9549260694448094e-08,
        1
      ],
      "translation": [
        4.9419493675231934,
        2.5072426979022566e-06,
        -6.6906213760375977e-06
      ]
    },
    {
      "name": "Bone013_end_019",
      "rotation": [
        3.4694469519536142e-18,
        2.7755575615628914e-17,
        -6.9388939039072284e-18,
        1
      ],
      "translation": [
        0,
        4.941953182220459,
        -4.4408920985006262e-16
      ]
    },
    {
      "matrix": [
        8.9069797249894336,
        -8.7471047594118453e-07,
        5.9543925079507245,
        0,
        5.954392507950816,
        1.7624505204312198e-06,
        -8.9069797249893092,
        0,
        -2.5231493781273852e-07,
        10.713966842225965,
        1.95132972098784e-06,
        0,
        95.27706646815038,
        -323.82238313057741,
        -97.311044922659548,
        1
      ],
      "name": ""
    },
    {
      "mesh": 1,
      "name": "",
      "skin": 0
    }
  ],
  "samplers": [
    {
      "magFilter": 9729,
      "minFilter": 9987,
      "wrapS": 10497,
      "wrapT": 10497
    }
  ],
  "scene": 0,
  "scenes": [
    {
      "name": "OSG_Scene",
      "nodes": [
        0
      ]
    }
  ],
  "skins": [
    {
      "inverseBindMatrices": 8,
      "joints": [
        6,
        7,
        8,
        9,
        10,
        11,
        12,
        13,
        14,
        15,
        16,
        19,
        20,
        21,
        22,
        23,
        24,
        25,
        26,
        27,
        28
      ],
      "skeleton": 6
    }
  ],
  "textures": [
    {
      "sampler": 0,
      "source": 0
    }
  ]
}

