{
  "accessors": [
    {
      "bufferView": 2,
      "componentType": 5126,
      "count": 458,
      "max": [
        0.07110448181629181,
        0.007646335754543543,
        0.004999999888241291
      ],
      "min": [
        -0.004792443476617336,
        -0.004999999888241291,
        -0.004999999888241291
      ],
      "type": "VEC3"
    },
    {
      "bufferView": 2,
      "byteOffset": 5496,
      "componentType": 5126,
      "count": 458,
      "max": [
        0.9993420839309692,
        0.9999684691429138,
        0.9992595911026001
      ],
      "min": [
        -0.9993420839309692,
        -1.0,
        -0.9992595911026001
      ],
      "type": "VEC3"
    },
    {
      "bufferView": 1,
      "componentType": 5126,
      "count": 458,
      "max": [
        0.9966006278991699,
        0.8929855823516846
      ],
      "min": [
        0.009205520153045654,
        0.10045373439788818
      ],
      "type": "VEC2"
    },
    {
      "bufferView": 0,
      "componentType": 5125,
      "count": 1944,
      "type": "SCALAR"
    }
  ],
  "asset": {
    "extras": {
      "author": "2gamersinthetube (https://sketchfab.com/2gamersinthetube)",
      "license": "CC-BY-4.0 (http://creativecommons.org/licenses/by/4.0/)",
      "source": "https://sketchfab.com/3d-models/finish-asset-ba6fde1770fd498785757ba061eca9b5",
      "title": "Finish Asset"
    },
    "generator": "Sketchfab-11.33.0",
    "version": "2.0"
  },
  "bufferViews": [
    {
      "buffer": 0,
      "byteLength": 7776,
      "name": "floatBufferViews",
      "target": 34963
    },
    {
      "buffer": 0,
      "byteLength": 3664,
      "byteOffset": 7776,
      "byteStride": 8,
      "name": "floatBufferViews",
      "target": 34962
    },
    {
      "buffer": 0,
      "byteLength": 10992,
      "byteOffset": 11440,
      "byteStride": 12,
      "name": "floatBufferViews",
      "target": 34962
    }
  ],
  "buffers": [
    {
      "byteLength": 22432,
      "uri": "scene.bin"
    }
  ],
  "images": [
    {
      "uri": "textures/lambert2_baseColor.png"
    }
  ],
  "materials": [
    {
      "alphaMode": "BLEND",
      "name": "lambert2",
      "pbrMetallicRoughness": {
        "baseColorTexture": {
          "index": 0
        },
        "metallicFactor": 0.0,
        "roughnessFactor": 0.450054
      }
    }
  ],
  "meshes": [
    {
      "name": "Object_0",
      "primitives": [
        {
          "attributes": {
            "NORMAL": 1,
            "POSITION": 0,
            "TEXCOORD_0": 2
          },
          "indices": 3,
          "material": 0,
          "mode": 4
        }
      ]
    }
  ],
  "nodes": [
    {
      "children": [
        1
      ],
      "matrix": [
        1.0,
        0.0,
        0.0,
        0.0,
        0.0,
        2.220446049250313e-16,
        -1.0,
        0.0,
        0.0,
        1.0,
        2.220446049250313e-16,
        0.0,
        0.0,
        0.0,
        0.0,
        1.0
      ],
      "name": "Sketchfab_model"
    },
    {
      "children": [
        2
      ],
      "name": "root"
    },
    {
      "children": [
        3
      ],
      "matrix": [
        1.0,
        0.0,
        0.0,
        0.0,
        0.0,
        2.220446049250313e-16,
        1.0,
        0.0,
        0.0,
        -1.0,
        2.220446049250313e-16,
        0.0,
        0.0,
        0.0,
        0.0,
        1.0
      ],
      "name": "GLTF_SceneRootNode"
    },
    {
      "children": [
        4
      ],
      "matrix": [
        1.0427111387252808,
        0.0,
        0.0,
        0.0,
        0.0,
        4.85997200012207,
        0.0,
        0.0,
        0.0,
        0.0,
        0.6687324643135071,
        0.0,
        -0.034705791622400284,
        0.026791192591190338,
        0.0,
        1.0
      ],
      "name": "pCube1_0"
    },
    {
      "mesh": 0,
      "name": "Object_4"
    }
  ],
  "samplers": [
    {
      "magFilter": 9729,
      "minFilter": 9987,
      "wrapS": 10497,
      "wrapT": 10497
    }
  ],
  "scene": 0,
  "scenes": [
    {
      "name": "Sketchfab_Scene",
      "nodes": [
        0
      ]
    }
  ],
  "textures": [
    {
      "sampler": 0,
      "source": 0
    }
  ]
}
