{
  "accessors": [
    {
      "bufferView": 2,
      "componentType": 5126,
      "count": 1016,
      "max": [
        0.51099199056625366,
        1.0699189901351929,
        2.007411003112793
      ],
      "min": [
        -1.8528079986572266,
        -1.0699189901351929,
        -1.4816700220108032
      ],
      "type": "VEC3"
    },
    {
      "bufferView": 2,
      "byteOffset": 12192,
      "componentType": 5126,
      "count": 1016,
      "max": [
        0.9984397292137146,
        0.98906910419464111,
        0.99120032787322998
      ],
      "min": [
        -0.9939311146736145,
        -0.98906910419464111,
        -0.91359716653823853
      ],
      "type": "VEC3"
    },
    {
      "bufferView": 3,
      "componentType": 5126,
      "count": 1016,
      "max": [
        1,
        0.99832218885421753,
        0.99935173988342285,
        1
      ],
      "min": [
        -0.97059845924377441,
        -0.99832218885421753,
        -0.99685436487197876,
        -1
      ],
      "type": "VEC4"
    },
    {
      "bufferView": 1,
      "componentType": 5126,
      "count": 1016,
      "max": [
        0.99986600875854492,
        0.96486198902130127
      ],
      "min": [
        0.0001340000017080456,
        0.0001340000017080456
      ],
      "type": "VEC2"
    },
    {
      "bufferView": 0,
      "componentType": 5125,
      "count": 684,
      "max": [
        493
      ],
      "min": [
        0
      ],
      "type": "SCALAR"
    },
    {
      "bufferView": 2,
      "byteOffset": 24384,
      "componentType": 5126,
      "count": 1016,
      "max": [
        0.51099199056625366,
        1.0699189901351929,
        2.007411003112793
      ],
      "min": [
        -1.8528079986572266,
        -1.0699189901351929,
        -1.4816700220108032
      ],
      "type": "VEC3"
    },
    {
      "bufferView": 2,
      "byteOffset": 36576,
      "componentType": 5126,
      "count": 1016,
      "max": [
        0.9984397292137146,
        0.98906910419464111,
        0.99120032787322998
      ],
      "min": [
        -0.9939311146736145,
        -0.98906910419464111,
        -0.91359716653823853
      ],
      "type": "VEC3"
    },
    {
      "bufferView": 3,
      "byteOffset": 16256,
      "componentType": 5126,
      "count": 1016,
      "max": [
        1,
        0.99832218885421753,
        0.99935173988342285,
        1
      ],
      "min": [
        -0.97059845924377441,
        -0.99832218885421753,
        -0.99685436487197876,
        -1
      ],
      "type": "VEC4"
    },
    {
      "bufferView": 0,
      "byteOffset": 2736,
      "componentType": 5125,
      "count": 300,
      "max": [
        709
      ],
      "min": [
        494
      ],
      "type": "SCALAR"
    },
    {
      "bufferView": 2,
      "byteOffset": 48768,
      "componentType": 5126,
      "count": 1016,
      "max": [
        0.51099199056625366,
        1.0699189901351929,
        2.007411003112793
      ],
      "min": [
        -1.8528079986572266,
        -1.0699189901351929,
        -1.4816700220108032
      ],
      "type": "VEC3"
    },
    {
      "bufferView": 2,
      "byteOffset": 60960,
      "componentType": 5126,
      "count": 1016,
      "max": [
        0.9984397292137146,
        0.98906910419464111,
        0.99120032787322998
      ],
      "min": [
        -0.9939311146736145,
        -0.98906910419464111,
        -0.91359716653823853
      ],
      "type": "VEC3"
    },
    {
      "bufferView": 3,
      "byteOffset": 32512,
      "componentType": 5126,
      "count": 1016,
      "max": [
        1,
        0.99832218885421753,
        0.99935173988342285,
        1
      ],
      "min": [
        -0.97059845924377441,
        -0.99832218885421753,
        -0.99685436487197876,
        -1
      ],
      "type": "VEC4"
    },
    {
      "bufferView": 0,
      "byteOffset": 3936,
      "componentType": 5125,
      "count": 42,
      "max": [
        747
      ],
      "min": [
        710
      ],
      "type": "SCALAR"
    },
    {
      "bufferView": 2,
      "byteOffset": 73152,
      "componentType": 5126,
      "count": 1016,
      "max": [
        0.51099199056625366,
        1.0699189901351929,
        2.007411003112793
      ],
      "min": [
        -1.8528079986572266,
        -1.0699189901351929,
        -1.4816700220108032
      ],
      "type": "VEC3"
    },
    {
      "bufferView": 2,
      "byteOffset": 85344,
      "componentType": 5126,
      "count": 1016,
      "max": [
        0.9984397292137146,
        0.98906910419464111,
        0.99120032787322998
      ],
      "min": [
        -0.9939311146736145,
        -0.98906910419464111,
        -0.91359716653823853
      ],
      "type": "VEC3"
    },
    {
      "bufferView": 3,
      "byteOffset": 48768,
      "componentType": 5126,
      "count": 1016,
      "max": [
        1,
        0.99832218885421753,
        0.99935173988342285,
        1
      ],
      "min": [
        -0.97059845924377441,
        -0.99832218885421753,
        -0.99685436487197876,
        -1
      ],
      "type": "VEC4"
    },
    {
      "bufferView": 0,
      "byteOffset": 4104,
      "componentType": 5125,
      "count": 30,
      "max": [
        765
      ],
      "min": [
        748
      ],
      "type": "SCALAR"
    },
    {
      "bufferView": 2,
      "byteOffset": 97536,
      "componentType": 5126,
      "count": 1016,
      "max": [
        0.51099199056625366,
        1.0699189901351929,
        2.007411003112793
      ],
      "min": [
        -1.8528079986572266,
        -1.0699189901351929,
        -1.4816700220108032
      ],
      "type": "VEC3"
    },
    {
      "bufferView": 2,
      "byteOffset": 109728,
      "componentType": 5126,
      "count": 1016,
      "max": [
        0.9984397292137146,
        0.98906910419464111,
        0.99120032787322998
      ],
      "min": [
        -0.9939311146736145,
        -0.98906910419464111,
        -0.91359716653823853
      ],
      "type": "VEC3"
    },
    {
      "bufferView": 3,
      "byteOffset": 65024,
      "componentType": 5126,
      "count": 1016,
      "max": [
        1,
        0.99832218885421753,
        0.99935173988342285,
        1
      ],
      "min": [
        -0.97059845924377441,
        -0.99832218885421753,
        -0.99685436487197876,
        -1
      ],
      "type": "VEC4"
    },
    {
      "bufferView": 0,
      "byteOffset": 4224,
      "componentType": 5125,
      "count": 330,
      "max": [
        1015
      ],
      "min": [
        766
      ],
      "type": "SCALAR"
    }
  ],
  "asset": {
    "extras": {
      "author": "blujay (https://sketchfab.com/blujay)",
      "license": "CC-BY-4.0 (http://creativecommons.org/licenses/by/4.0/)",
      "source": "https://sketchfab.com/models/f1d1eb1f7c934a1b9a9df628dfee003c",
      "title": "brown chicken textured"
    },
    "generator": "Sketchfab-3.18.7",
    "version": "2.0"
  },
  "bufferViews": [
    {
      "buffer": 0,
      "byteLength": 5544,
      "byteOffset": 0,
      "name": "floatBufferViews",
      "target": 34963
    },
    {
      "buffer": 0,
      "byteLength": 8128,
      "byteOffset": 5544,
      "byteStride": 8,
      "name": "floatBufferViews",
      "target": 34962
    },
    {
      "buffer": 0,
      "byteLength": 121920,
      "byteOffset": 13672,
      "byteStride": 12,
      "name": "floatBufferViews",
      "target": 34962
    },
    {
      "buffer": 0,
      "byteLength": 81280,
      "byteOffset": 135592,
      "byteStride": 16,
      "name": "floatBufferViews",
      "target": 34962
    }
  ],
  "buffers": [
    {
      "byteLength": 216872,
      "uri": "scene.bin"
    }
  ],
  "extensionsUsed": [
    "KHR_materials_unlit"
  ],
  "images": [
    {
      "uri": "textures/feathers_baseColor.jpeg"
    }
  ],
  "materials": [
    {
      "doubleSided": false,
      "emissiveFactor": [
        0,
        0,
        0
      ],
      "extensions": {
        "KHR_materials_unlit": {}
      },
      "name": "feathers",
      "pbrMetallicRoughness": {
        "baseColorFactor": [
          1,
          1,
          1,
          1
        ],
        "baseColorTexture": {
          "index": 0,
          "texCoord": 0
        },
        "metallicFactor": 0,
        "roughnessFactor": 1
      }
    },
    {
      "doubleSided": false,
      "emissiveFactor": [
        0,
        0,
        0
      ],
      "extensions": {
        "KHR_materials_unlit": {}
      },
      "name": "pale_red",
      "pbrMetallicRoughness": {
        "baseColorFactor": [
          0.68317165769999999,
          0.060568216100000002,
          0.061930940900000002,
          1
        ],
        "metallicFactor": 0,
        "roughnessFactor": 1
      }
    },
    {
      "doubleSided": false,
      "emissiveFactor": [
        0,
        0,
        0
      ],
      "extensions": {
        "KHR_materials_unlit": {}
      },
      "name": "gold",
      "pbrMetallicRoughness": {
        "baseColorFactor": [
          0.74943454239999996,
          0.3644589506,
          0.0018093598,
          1
        ],
        "metallicFactor": 0,
        "roughnessFactor": 1
      }
    },
    {
      "doubleSided": false,
      "emissiveFactor": [
        0,
        0,
        0
      ],
      "extensions": {
        "KHR_materials_unlit": {}
      },
      "name": "black",
      "pbrMetallicRoughness": {
        "baseColorFactor": [
          0,
          0,
          0,
          1
        ],
        "metallicFactor": 0,
        "roughnessFactor": 1
      }
    },
    {
      "doubleSided": false,
      "emissiveFactor": [
        0,
        0,
        0
      ],
      "extensions": {
        "KHR_materials_unlit": {}
      },
      "name": "buttermilk",
      "pbrMetallicRoughness": {
        "baseColorFactor": [
          0.84644337729999997,
          0.59267528079999998,
          0.27294879919999998,
          1
        ],
        "metallicFactor": 0,
        "roughnessFactor": 1
      }
    }
  ],
  "meshes": [
    {
      "primitives": [
        {
          "attributes": {
            "NORMAL": 1,
            "POSITION": 0,
            "TANGENT": 2,
            "TEXCOORD_0": 3
          },
          "indices": 4,
          "material": 0,
          "mode": 4
        }
      ]
    },
    {
      "primitives": [
        {
          "attributes": {
            "NORMAL": 6,
            "POSITION": 5,
            "TANGENT": 7
          },
          "indices": 8,
          "material": 1,
          "mode": 4
        }
      ]
    },
    {
      "primitives": [
        {
          "attributes": {
            "NORMAL": 10,
            "POSITION": 9,
            "TANGENT": 11
          },
          "indices": 12,
          "material": 2,
          "mode": 4
        }
      ]
    },
    {
      "primitives": [
        {
          "attributes": {
            "NORMAL": 14,
            "POSITION": 13,
            "TANGENT": 15
          },
          "indices": 16,
          "material": 3,
          "mode": 4
        }
      ]
    },
    {
      "primitives": [
        {
          "attributes": {
            "NORMAL": 18,
            "POSITION": 17,
            "TANGENT": 19
          },
          "indices": 20,
          "material": 4,
          "mode": 4
        }
      ]
    }
  ],
  "nodes": [
    {
      "children": [
        1
      ],
      "name": "RootNode (gltf orientation matrix)",
      "rotation": [
        -0.70710678118654746,
        -0,
        -0,
        0.70710678118654757
      ]
    },
    {
      "children": [
        2
      ],
      "matrix": [
        0.9888795018196106,
        0.041410394012928009,
        -0.14283746480941772,
        0,
        -0.040985047817230225,
        0.99914222955703735,
        0.0059200339019298553,
        0,
        0.1429600864648819,
        0,
        0.98972845077514648,
        0,
        -0.78860014677047729,
        0.08701971173286438,
        -0.24517716467380524,
        1
      ],
      "name": "RootNode (model correction matrix)"
    },
    {
      "children": [
        3
      ],
      "name": "root"
    },
    {
      "children": [
        4
      ],
      "matrix": [
        1,
        0,
        0,
        0,
        0,
        2.2204460492503131e-16,
        1,
        0,
        0,
        -1,
        2.2204460492503131e-16,
        0,
        0,
        0,
        0,
        1
      ],
      "name": "Correction matrix"
    },
    {
      "children": [
        5
      ],
      "name": "GLTF_SceneRootNode"
    },
    {
      "children": [
        6
      ],
      "matrix": [
        -1,
        0,
        -8.7422776573475858e-08,
        0,
        0,
        1,
        0,
        0,
        8.7422776573475858e-08,
        0,
        -1,
        0,
        0,
        0,
        0,
        1
      ],
      "name": "UnityGlTF_correctionMatrix_0"
    },
    {
      "children": [
        7,
        8,
        9,
        10,
        11
      ],
      "matrix": [
        1,
        0,
        0,
        0,
        0,
        -1.1920930376163597e-07,
        1,
        0,
        0,
        -1,
        -1.1920930376163597e-07,
        0,
        3.0294010639190674,
        2,
        -12.413020133972168,
        1
      ],
      "name": "node_chicken-texture_-4072_1"
    },
    {
      "mesh": 0,
      "name": ""
    },
    {
      "mesh": 1,
      "name": ""
    },
    {
      "mesh": 2,
      "name": ""
    },
    {
      "mesh": 3,
      "name": ""
    },
    {
      "mesh": 4,
      "name": ""
    }
  ],
  "samplers": [
    {
      "magFilter": 9729,
      "minFilter": 9987,
      "wrapS": 10497,
      "wrapT": 10497
    }
  ],
  "scene": 0,
  "scenes": [
    {
      "name": "OSG_Scene",
      "nodes": [
        0
      ]
    }
  ],
  "textures": [
    {
      "sampler": 0,
      "source": 0
    }
  ]
}

